Coordinates
version=1
nRows=18
nColumns=26
inDegrees=yes

Units are S.I. units (second, meters, Newtons, ...)
Angles are in degrees.

endheader
time	pelvis_tilt	pelvis_list	pelvis_rotation	pelvis_tx	pelvis_ty	pelvis_tz	hip_flexion_r	hip_adduction_r	hip_rotation_r	knee_angle_r	knee_angle_r_beta	ankle_angle_r	subtalar_angle_r	mtp_angle_r	hip_flexion_l	hip_adduction_l	hip_rotation_l	knee_angle_l	knee_angle_l_beta	ankle_angle_l	subtalar_angle_l	mtp_angle_l	lumbar_extension	lumbar_bending	lumbar_rotation
      0.00000000	      4.12377884	     -4.55783176	     -3.94379364	      0.05247204	      0.98255512	      0.18662154	    -19.31101557	      5.71678790	      3.04320901	      7.74643854	      7.74643854	     11.39709921	      0.00000000	      0.00000000	     22.96265608	     -7.10754789	    -16.77964552	     13.12446259	     13.12446259	     -2.72453108	      0.00000000	      0.00000000	    -19.32822655	      4.31883313	      8.23112913
      0.00833333	      4.26106221	     -4.51327443	     -4.31083542	      0.06292071	      0.98205887	      0.18656602	    -19.78283243	      5.43796439	      3.13346549	      8.37032001	      8.37032001	     11.38478320	      0.00000000	      0.00000000	     22.46278069	     -6.95026705	    -16.46187374	     13.58891001	     13.58891001	     -2.97572129	      0.00000000	      0.00000000	    -19.40235243	      4.00333730	      8.55386317
      0.01666667	      4.36707049	     -4.45062759	     -4.68238691	      0.07348652	      0.98166904	      0.18650507	    -20.15644272	      5.12796448	      3.20953242	      9.09460853	      9.09460853	     11.31207220	      0.00000000	      0.00000000	     21.92817706	     -6.75627199	    -16.05780527	     13.80494031	     13.80494031	     -3.60374089	      0.00000000	      0.00000000	    -19.40191494	      3.66021663	      8.80404669
      0.02500000	      4.39154843	     -4.43037810	     -4.99826407	      0.08406720	      0.98126944	      0.18629981	    -20.34989571	      4.86679403	      3.24074364	      9.97897337	      9.97897337	     11.17408298	      0.00000000	      0.00000000	     21.49987304	     -6.63971170	    -15.48729722	     14.08076664	     14.08076664	     -4.57410557	      0.00000000	      0.00000000	    -19.30281512	      3.38917425	      9.00072550
      0.03333333	      4.35194170	     -4.42389309	     -5.25829387	      0.09470193	      0.98097594	      0.18603959	    -20.36331374	      4.65042459	      3.18456259	     11.03496258	     11.03496258	     10.93185461	      0.00000000	      0.00000000	     21.11262244	     -6.53742165	    -14.95593866	     14.14859038	     14.14859038	     -5.90445285	      0.00000000	      0.00000000	    -19.12256480	      3.16107665	      9.11387931
      0.04166667	      4.33338471	     -4.45514475	     -5.49698088	      0.10536857	      0.98089242	      0.18586664	    -20.27055892	      4.47092105	      3.10099949	     12.33203815	     12.33203815	     10.56364164	      0.00000000	      0.00000000	     20.75464945	     -6.57821072	    -14.63858901	     14.45201134	     14.45201134	     -6.84935362	      0.00000000	      0.00000000	    -18.95535336	      2.95917619	      9.18288583
      0.05000000	      4.30978487	     -4.49978293	     -5.68372240	      0.11614741	      0.98093134	      0.18572208	    -20.07980498	      4.31213057	      2.95403309	     13.73895688	     13.73895688	     10.11985586	      0.00000000	      0.00000000	     20.44680645	     -6.69847152	    -14.44042852	     15.00037703	     15.00037703	     -7.03146913	      0.00000000	      0.00000000	    -18.76795591	      2.77507803	      9.21830860
      0.05833333	      4.33385707	     -4.43420270	     -5.77889413	      0.12676472	      0.98134856	      0.18540033	    -19.74669302	      4.04465146	      2.65238522	     15.47394481	     15.47394481	      9.74729031	      0.00000000	      0.00000000	     20.17871728	     -6.69443688	    -14.14134737	     15.80470998	     15.80470998	     -6.65787569	      0.00000000	      0.00000000	    -18.64601818	      2.48056062	      9.10465215
      0.06666667	      4.35554518	     -4.24688429	     -5.79325447	      0.13723946	      0.98211694	      0.18487553	    -19.20553872	      3.65786489	      2.26347855	     17.50263262	     17.50263262	      9.16386054	      0.00000000	      0.00000000	     19.92258603	     -6.48399321	    -13.76618416	     16.69656733	     16.69656733	     -5.64849664	      0.00000000	      0.00000000	    -18.53111310	      2.07766533	      8.91225502
      0.07500000	      4.36434862	     -4.01343280	     -5.70495379	      0.14751440	      0.98321929	      0.18427730	    -18.45875306	      3.23882573	      1.75337895	     19.78012229	     19.78012229	      8.40774733	      0.00000000	      0.00000000	     19.87508822	     -6.24871169	    -13.43512115	     17.95134827	     17.95134827	     -4.53258424	      0.00000000	      0.00000000	    -18.42237351	      1.63761212	      8.62679341
      0.08333333	      4.43136400	     -3.71722540	     -5.58175007	      0.15771173	      0.98462197	      0.18366532	    -17.57890582	      2.73141856	      1.24352173	     22.35653621	     22.35653621	      7.42599058	      0.00000000	      0.00000000	     19.77024793	     -5.93332370	    -13.11205717	     19.21230943	     19.21230943	     -3.38876312	      0.00000000	      0.00000000	    -18.40328232	      1.12549413	      8.31687152
      0.09166667	      4.58629579	     -3.47832659	     -5.45069715	      0.16787962	      0.98629169	      0.18295607	    -16.67155489	      2.24863061	      0.83079815	     25.03655943	     25.03655943	      6.17722698	      0.00000000	      0.00000000	     19.43190052	     -5.63858930	    -12.73179579	     20.21011619	     20.21011619	     -2.37571314	      0.00000000	      0.00000000	    -18.50156472	      0.69178948	      8.08002049
      0.10000000	      4.83275177	     -3.22876929	     -5.30927241	      0.17805801	      0.98815591	      0.18206420	    -15.70087048	      1.70689978	      0.40290656	     27.94268505	     27.94268505	      4.75999909	      0.00000000	      0.00000000	     18.81452081	     -5.24807021	    -12.41661832	     20.81040882	     20.81040882	     -1.56573367	      0.00000000	      0.00000000	    -18.70436271	      0.27814257	      7.87252009
      0.10833333	      5.11411880	     -2.97248430	     -5.04173988	      0.18833211	      0.98998421	      0.18077287	    -14.66694523	      1.15011720	     -0.10261911	     30.96184138	     30.96184138	      3.08800012	      0.00000000	      0.00000000	     17.98488551	     -4.73463347	    -12.13745770	     20.99883896	     20.99883896	     -0.89807810	      0.00000000	      0.00000000	    -18.92693636	     -0.06320739	      7.56121900
      0.11666667	      5.37006868	     -2.69653251	     -4.94828105	      0.19843101	      0.99172587	      0.17979071	    -13.45756514	      0.50879432	     -0.38685786	     34.13783287	     34.13783287	      1.31969836	      0.00000000	      0.00000000	     16.99446828	     -4.24563108	    -12.23713189	     20.87063802	     20.87063802	     -0.29684321	      0.00000000	      0.00000000	    -19.11661506	     -0.46071020	      7.39396866
      0.12500000	      5.58284929	     -2.40823469	     -4.85066881	      0.20849289	      0.99335240	      0.17870534	    -12.11219012	     -0.13949352	     -0.61813624	     37.36938708	     37.36938708	     -0.62110094	      0.00000000	      0.00000000	     16.04290995	     -3.75942575	    -12.44591835	     20.77697604	     20.77697604	      0.36572625	      0.00000000	      0.00000000	    -19.23907556	     -0.82524290	      7.19648453
      0.13333333	      5.72277583	     -2.12261129	     -4.79366263	      0.21838406	      0.99492255	      0.17778580	    -10.61942121	     -0.76612001	     -0.70125048	     40.57648636	     40.57648636	     -2.58102480	      0.00000000	      0.00000000	     15.07920604	     -3.25197745	    -12.63310073	     20.45935768	     20.45935768	      0.91850986	      0.00000000	      0.00000000	    -19.27031432	     -1.18742536	      7.01141540
      0.14166667	      5.85448433	     -1.84910909	     -4.72262201	      0.22813936	      0.99650054	      0.17686862	     -9.14703059	     -1.31411886	     -0.66894342	     43.62396155	     43.62396155	     -4.35413211	      0.00000000	      0.00000000	     14.12473348	     -2.76319344	    -12.83374516	     20.10668574	     20.10668574	      1.38367704	      0.00000000	      0.00000000	    -19.29019574	     -1.51212134	      6.78524097
